<svg id="Layer_1" data-name="Layer 1" xmlns="http://www.w3.org/2000/svg" viewBox="0 0 143 33"><defs><style>.cls-1{fill:#e6e6e6;}</style></defs><title>liBg</title><path class="cls-1" d="M29.85,9c12.2-1.5,27.1.45,39.42-.91C84,6.29,100.05,6.29,114.83,6.29c0,.91-1.23,2.27,0,2.72,4.93,1.36,4.93,3.18,4.93,5,0,.91-3.69,0-2.46.91-3.69,0-9.86.45-6.16,1.36,1.23.91,6.16,0,7.39,1.36s-1.23,2.72,0,4.09h4.93c1.23.91-1.23,2.73,0,2.73,3.69.91,8.62.45,13.55.45,0,.91,1.23,1.82-1.23,2.27-43.11.91-87.45,2.72-130.56,1.36C.29,28.08,4,26.27,7.68,24.91c-1.23.45-1.23-.91-2.46-.45,0-1.36,2.46-3.63,7.39-4.09H8.91c-1.23-.45,0-1.36,0-2.27,1.23,0,2.46,0,2.46-.46V15.83H6.45c1.23,0,2.46,0,2.46-.45V13.55c2.46-.45,6.16.46,8.62,0V12.19c-2.47-.45-6.16,0-8.62,0,1.23-.45,1.23-.91,1.23-1.82,3.69-.45,7.39.91,11.08-.45H17.53C20,7.65,26.15,9.47,29.85,9Z"/></svg>