<svg id="Layer_1" data-name="Layer 1" xmlns="http://www.w3.org/2000/svg" viewBox="0 0 277 146"><title>logo</title><path d="M12.44,78.77A44.44,44.44,0,0,0,11,89.33q0,4.86,1.25,20.72t1.25,20.47q0,4.61-1.65,7t-3.75,2.4q-3,0-3.8-4.1.2-7.61.2-18.67T2.78,68.56Q1,31,1,12.51,1,2.8,7.84,2.8q10.71,0,18,5.61t7.31,16q0,14-2.2,21.82T22.65,65.76q1.1,4.91,3.9,19.62,5.9,31.83,13.31,45.94,2.1,4,2.1,6.26a5.87,5.87,0,0,1-1.25,3.8,4.09,4.09,0,0,1-3.35,1.55q-6.71,0-12.31-22.32-2.4-9.71-4.3-19.62-5.41-27.13-6.91-30.53A39.59,39.59,0,0,1,12.44,78.77Zm-.3-68.37-.7,2.9q0,8.41.4,24.27t.4,23.07Q17,58.15,20,47.59t3-16.17a81.23,81.23,0,0,0-.3-8.26,31.94,31.94,0,0,0-1.3-5.86Q19.45,10.6,12.14,10.4Zm65,121.32,8.11-.5q7.81,0,7.81,5a4.72,4.72,0,0,1-2.7,4.5,13.08,13.08,0,0,1-6.11,1.4H64.89a6.16,6.16,0,0,1-4.45-1.8,6.66,6.66,0,0,1-2-4.6,39.31,39.31,0,0,1,.4-7,54.66,54.66,0,0,0,.55-6.71l-1-26.23,1.4-59.86-1.1-17.32Q58.69,4.1,67.3,4.1a7.61,7.61,0,0,1,4.5,1.5q.8.1,3.85.35T81,6.6q2.3.4,5,1.1,5.8,1.6,5.81,5.51,0,4.2-6,6.41a78.16,78.16,0,0,0-15.52-3.9q.3,4.41.3,8.81l-.9,29.43q0,.2.6,3.2l7.31-.3q9.91,0,9.91,5.61a8.53,8.53,0,0,1-1.75,5.31,5.86,5.86,0,0,1-5,2.3,9.08,9.08,0,0,1-5.61-1.8H70q.6,7.81.6,14.81l-.9,37.14Q69.7,131.72,77.11,131.72Zm80-25.42-1.1,4.1q0,2.5,1.8,12.21t1.8,12.71v.2q0,4.61-3.1,5.81a13.39,13.39,0,0,1-6.71-1.4q-2.4-1.4-2.4-7.06t-3-23.27l-6.31-.6h-6.81q-2.3-1-8.11-1,0,.2-.25,2.65t-.4,4q-.15,1.5-.5,4.45t-.75,5q-.4,2.05-1,4.8a28.67,28.67,0,0,1-1.35,4.6,38.16,38.16,0,0,1-1.65,3.55q-1.8,3.5-4.4,3.5a7.52,7.52,0,0,1-4.65-1.55,4.76,4.76,0,0,1-2.05-4q5.41-20.72,9.26-43.44t4.6-27q.75-4.25,3.5-16.42t3.3-16.27q.55-4.1,1.05-10.61.9-14.21,3.7-18.32h6.91q7,0,7,4.2a404.65,404.65,0,0,0,7.71,78.58q.4,2.3,1.5,6.41Q157.08,101.09,157.08,106.3Zm-14-4.4a55.22,55.22,0,0,1-.6-9.71q0-6.71-.85-16.27t-2.45-22.17q-1.6-12.61-2.2-18.22-1.2,5.81-4.7,19.42Q125.15,83.28,125,98.59,128.45,100.89,143.07,101.89Zm79.38-43.34L222,68.86V80.07q0,20.32-1.8,27.43a94,94,0,0,1-3.65,11.71,38.5,38.5,0,0,1-4.45,8.21,47,47,0,0,1-15.21,13.21h-14q-5.21,0-5.21-26.83l.6-64.56q0-17.92-.7-33.63a7.1,7.1,0,0,1-1.7-4.75A6.25,6.25,0,0,1,178.2,6,8.06,8.06,0,0,1,183.76,4q3.25,0,5.56,3.6a23.1,23.1,0,0,0,4.45,1.1,16.58,16.58,0,0,1,4.35,1.2Q209.53,15.21,216,28.67A68.2,68.2,0,0,1,222.45,58.55ZM188.91,34.83l2.3,90.49v4.9h3.7q10.71-13,13.81-23.82,2.9-10.11,2.9-28.23,0-61.86-21.22-64.66A121.61,121.61,0,0,0,188.91,34.83Zm50.45,96,10.81,1.5a8.72,8.72,0,0,0,6.81-3.4,21.8,21.8,0,0,0,4.3-8.51A66.37,66.37,0,0,0,264,103a46.51,46.51,0,0,0-2.5-15,79.37,79.37,0,0,0-6.11-13.76q-3.6-6.36-7.31-13-8.61-15.51-8.61-30.63a40.43,40.43,0,0,1,3.1-16.32Q248.37,1.19,258,1.19a11.69,11.69,0,0,1,6.86,2.3q3.25,2.3,3.25,5,0,4.71-5,4.7a8.57,8.57,0,0,1-4.3-1.2q-6.51.3-8.81,14.51a46,46,0,0,0-.5,7.26A37.5,37.5,0,0,0,251.28,44a49.57,49.57,0,0,0,4.55,10.86q2.75,4.75,5.91,10.51t6,11.16Q274,89.08,274,105.2a55.27,55.27,0,0,1-5.1,23.72,23.78,23.78,0,0,1-7.66,9.16,19.71,19.71,0,0,1-11.46,3.65v.5a16.19,16.19,0,0,1-6.91-2.55,7.3,7.3,0,0,1-3.5-5.35Z"/></svg>